<svg width="122" height="39" viewBox="0 0 122 39" fill="none" xmlns="http://www.w3.org/2000/svg">
<path d="M1.5 31V7.72727H7.81818V25.9091H17.2273V31H1.5ZM41.4205 19.3636C41.4205 21.9545 40.9167 24.1402 39.9091 25.9205C38.9015 27.6932 37.5417 29.0379 35.8295 29.9545C34.1174 30.8636 32.2083 31.3182 30.1023 31.3182C27.9811 31.3182 26.0644 30.8598 24.3523 29.9432C22.6477 29.0189 21.2917 27.6705 20.2841 25.8977C19.2841 24.1174 18.7841 21.9394 18.7841 19.3636C18.7841 16.7727 19.2841 14.5909 20.2841 12.8182C21.2917 11.0379 22.6477 9.69318 24.3523 8.78409C26.0644 7.86742 27.9811 7.40909 30.1023 7.40909C32.2083 7.40909 34.1174 7.86742 35.8295 8.78409C37.5417 9.69318 38.9015 11.0379 39.9091 12.8182C40.9167 14.5909 41.4205 16.7727 41.4205 19.3636ZM34.9205 19.3636C34.9205 17.9697 34.7348 16.7955 34.3636 15.8409C34 14.8788 33.4583 14.1515 32.7386 13.6591C32.0265 13.1591 31.1477 12.9091 30.1023 12.9091C29.0568 12.9091 28.1742 13.1591 27.4545 13.6591C26.7424 14.1515 26.2008 14.8788 25.8295 15.8409C25.4659 16.7955 25.2841 17.9697 25.2841 19.3636C25.2841 20.7576 25.4659 21.9356 25.8295 22.8977C26.2008 23.8523 26.7424 24.5795 27.4545 25.0795C28.1742 25.572 29.0568 25.8182 30.1023 25.8182C31.1477 25.8182 32.0265 25.572 32.7386 25.0795C33.4583 24.5795 34 23.8523 34.3636 22.8977C34.7348 21.9356 34.9205 20.7576 34.9205 19.3636ZM59.4574 15.4091C59.3589 15.0076 59.2036 14.6553 58.9915 14.3523C58.7794 14.0417 58.5142 13.7803 58.196 13.5682C57.8854 13.3485 57.5218 13.1856 57.1051 13.0795C56.696 12.9659 56.2453 12.9091 55.7528 12.9091C54.6922 12.9091 53.7869 13.1629 53.0369 13.6705C52.2945 14.178 51.7263 14.9091 51.3324 15.8636C50.946 16.8182 50.7528 17.9697 50.7528 19.3182C50.7528 20.6818 50.9384 21.8485 51.3097 22.8182C51.6809 23.7879 52.2339 24.5303 52.9688 25.0455C53.7036 25.5606 54.6165 25.8182 55.7074 25.8182C56.6695 25.8182 57.4688 25.678 58.1051 25.3977C58.7491 25.1174 59.2301 24.7197 59.5483 24.2045C59.8665 23.6894 60.0256 23.0833 60.0256 22.3864L61.1165 22.5H55.7983V18H66.1165V21.2273C66.1165 23.3485 65.6657 25.1629 64.7642 26.6705C63.8703 28.1705 62.6354 29.322 61.0597 30.125C59.4915 30.9205 57.6922 31.3182 55.6619 31.3182C53.3968 31.3182 51.4081 30.8371 49.696 29.875C47.9839 28.9129 46.6468 27.5417 45.6847 25.7614C44.7301 23.9811 44.2528 21.8636 44.2528 19.4091C44.2528 17.4848 44.5445 15.7803 45.1278 14.2955C45.7188 12.8106 46.5369 11.5568 47.5824 10.5341C48.6278 9.50379 49.8362 8.72727 51.2074 8.20454C52.5786 7.67424 54.0483 7.40909 55.6165 7.40909C56.9953 7.40909 58.2756 7.60606 59.4574 8C60.6468 8.38636 61.696 8.93939 62.6051 9.65909C63.5218 10.3712 64.2604 11.2159 64.821 12.1932C65.3816 13.1705 65.7225 14.2424 65.8438 15.4091H59.4574ZM91.608 19.3636C91.608 21.9545 91.1042 24.1402 90.0966 25.9205C89.089 27.6932 87.7292 29.0379 86.017 29.9545C84.3049 30.8636 82.3958 31.3182 80.2898 31.3182C78.1686 31.3182 76.2519 30.8598 74.5398 29.9432C72.8352 29.0189 71.4792 27.6705 70.4716 25.8977C69.4716 24.1174 68.9716 21.9394 68.9716 19.3636C68.9716 16.7727 69.4716 14.5909 70.4716 12.8182C71.4792 11.0379 72.8352 9.69318 74.5398 8.78409C76.2519 7.86742 78.1686 7.40909 80.2898 7.40909C82.3958 7.40909 84.3049 7.86742 86.017 8.78409C87.7292 9.69318 89.089 11.0379 90.0966 12.8182C91.1042 14.5909 91.608 16.7727 91.608 19.3636ZM85.108 19.3636C85.108 17.9697 84.9223 16.7955 84.5511 15.8409C84.1875 14.8788 83.6458 14.1515 82.9261 13.6591C82.214 13.1591 81.3352 12.9091 80.2898 12.9091C79.2443 12.9091 78.3617 13.1591 77.642 13.6591C76.9299 14.1515 76.3883 14.8788 76.017 15.8409C75.6534 16.7955 75.4716 17.9697 75.4716 19.3636C75.4716 20.7576 75.6534 21.9356 76.017 22.8977C76.3883 23.8523 76.9299 24.5795 77.642 25.0795C78.3617 25.572 79.2443 25.8182 80.2898 25.8182C81.3352 25.8182 82.214 25.572 82.9261 25.0795C83.6458 24.5795 84.1875 23.8523 84.5511 22.8977C84.9223 21.9356 85.108 20.7576 85.108 19.3636Z" fill="#BDBDBD" fill-opacity="0.4"/>
<path d="M122 19C122 26.1797 116.18 32 109 32C101.82 32 96 26.1797 96 19C96 11.8203 101.82 6 109 6C116.18 6 122 11.8203 122 19Z" fill="#FF5722"/>
</svg>
